<?xml version="1.0" standalone="no"?>
<!DOCTYPE svg PUBLIC "-//W3C//DTD SVG 20010904//EN"
 "http://www.w3.org/TR/2001/REC-SVG-20010904/DTD/svg10.dtd">
<svg version="1.0" xmlns="http://www.w3.org/2000/svg"
 width="500.000000pt" height="500.000000pt" viewBox="0 0 500.000000 500.000000"
 preserveAspectRatio="xMidYMid meet">

<g transform="translate(0.000000,500.000000) scale(0.100000,-0.100000)"
fill="#000000" stroke="none">
<path d="M2019 4285 c-347 -56 -639 -198 -885 -428 -315 -294 -514 -767 -514
-1219 0 -114 12 -227 39 -367 27 -138 124 -374 203 -494 21 -32 38 -60 38 -62
0 -6 87 -128 107 -150 10 -11 40 -46 66 -78 27 -31 53 -54 59 -51 6 4 8 3 5
-3 -4 -5 6 -22 22 -37 l28 -27 13 33 c34 86 83 179 128 245 37 53 47 74 38 83
-8 8 -7 10 5 5 11 -4 25 6 44 32 16 21 60 70 98 110 44 46 66 76 61 84 -5 9
-2 10 10 6 10 -4 15 -3 11 3 -3 6 -2 10 4 10 6 0 8 8 4 18 -5 14 -3 15 8 5 7
-7 18 -13 24 -13 5 0 3 5 -5 10 -19 12 -20 31 -2 53 10 11 11 17 4 17 -7 0
-12 -4 -12 -8 0 -5 -10 -14 -23 -21 -13 -7 -24 -19 -24 -26 0 -8 5 -11 10 -8
5 3 8 0 5 -7 -2 -7 -15 -15 -27 -17 -21 -3 -22 -1 -11 14 18 23 -13 -4 -112
-98 -42 -40 -75 -75 -74 -77 2 -1 -12 -18 -31 -37 -19 -19 -32 -38 -29 -43 3
-5 -1 -9 -9 -9 -12 0 -11 6 2 36 69 162 101 246 96 254 -3 6 -1 7 5 3 7 -4 12
-2 12 4 0 5 9 30 21 55 11 24 17 49 13 56 -4 7 -3 9 3 6 6 -4 14 0 17 9 3 8 2
13 -2 10 -4 -2 -8 9 -9 25 -1 15 2 31 6 34 5 3 7 -4 4 -15 -8 -30 16 -24 28 8
6 15 12 32 13 38 1 7 7 18 12 25 6 8 17 30 24 49 20 53 41 103 51 123 6 11 6
17 -1 17 -5 0 -10 -5 -10 -12 0 -6 -2 -9 -5 -6 -10 9 14 58 27 57 10 0 10 -2
1 -6 -7 -2 -13 -9 -13 -15 0 -6 6 -6 15 2 8 7 12 16 9 21 -3 5 2 16 11 25 15
15 14 18 -5 31 -23 16 -18 36 6 26 13 -5 13 -7 2 -14 -8 -5 -9 -9 -2 -9 6 0
17 7 24 15 7 8 9 15 5 15 -5 0 0 9 10 20 10 11 15 28 12 39 -3 11 -1 19 5 18
5 -1 15 13 23 31 8 18 10 30 5 27 -6 -3 -10 -2 -10 3 0 6 7 13 16 16 9 4 14
13 10 21 -3 8 -1 15 4 15 5 0 14 10 21 21 6 12 7 19 1 15 -5 -3 -15 0 -21 8
-9 11 -6 12 14 8 24 -4 26 -1 29 31 1 6 6 15 11 19 6 4 2 8 -8 8 -14 0 -16 5
-11 25 4 15 2 25 -5 25 -21 0 -11 20 14 26 13 3 23 11 22 16 -1 6 4 13 11 15
6 3 12 -2 12 -11 0 -9 -4 -16 -10 -16 -5 0 -6 -8 -3 -17 6 -15 4 -16 -9 -5
-11 9 -18 10 -23 2 -3 -5 -2 -10 4 -10 6 0 8 -6 5 -14 -3 -8 -1 -16 4 -20 5
-3 23 27 40 67 33 73 38 92 24 83 -4 -2 -16 2 -27 10 -10 8 -14 14 -9 14 6 0
14 -3 18 -7 13 -13 37 -11 42 3 2 8 6 21 9 29 2 8 3 17 2 19 -1 2 5 12 13 22
9 11 21 30 27 44 6 14 27 60 47 102 20 43 36 84 36 91 0 7 4 17 9 22 5 6 55
109 111 230 170 365 189 405 198 405 8 0 24 -30 127 -255 21 -44 53 -112 71
-152 19 -40 34 -77 34 -83 0 -5 5 -10 10 -10 6 0 10 -6 10 -14 0 -22 26 -66
35 -58 5 4 5 2 1 -5 -7 -13 13 -53 27 -53 4 0 5 5 2 10 -3 6 -1 10 5 10 7 0
10 -6 7 -14 -3 -8 1 -20 9 -26 8 -7 14 -9 14 -5 0 4 7 1 16 -6 19 -16 96 -12
106 4 6 9 8 9 8 1 0 -7 10 -15 23 -18 21 -6 21 -7 5 -20 -24 -18 -23 -23 10
-28 17 -2 35 3 46 14 22 20 43 13 25 -9 -15 -17 -19 -52 -7 -59 4 -3 8 6 8 19
0 26 44 55 55 37 4 -6 -2 -10 -12 -11 -11 0 -13 -3 -5 -6 7 -3 19 0 26 7 9 7
16 7 20 1 4 -5 2 -13 -4 -16 -8 -5 -7 -11 1 -21 6 -7 9 -20 6 -27 -4 -10 2
-13 19 -9 13 2 24 11 24 19 0 12 8 14 34 10 22 -4 36 -1 39 6 2 7 2 0 0 -15
-5 -30 5 -36 25 -16 9 9 15 9 24 0 9 -9 9 -12 0 -12 -7 0 -12 -6 -12 -13 0
-10 17 -13 70 -11 38 1 72 -2 76 -7 11 -18 -6 -24 -28 -10 -14 9 -23 10 -31 2
-6 -6 -19 -11 -29 -11 -10 0 -18 -5 -18 -11 0 -6 6 -9 13 -6 6 2 20 0 30 -5
12 -6 17 -5 17 7 0 19 14 19 30 0 11 -13 15 -12 37 5 14 11 30 17 35 14 6 -4
-2 -14 -17 -24 -15 -10 -22 -20 -17 -24 6 -3 13 -2 17 4 10 16 25 12 19 -5 -5
-11 1 -15 25 -15 18 0 31 -5 31 -12 0 -7 5 -20 10 -28 9 -13 11 -13 19 -1 8
12 12 12 25 2 8 -7 21 -9 28 -5 9 5 10 4 3 -4 -5 -6 -21 -12 -35 -15 -21 -3
-19 -5 8 -6 18 0 46 -8 61 -16 16 -8 31 -11 35 -8 11 11 6 53 -6 53 -6 0 -3 6
7 14 17 12 20 30 23 121 7 187 -37 342 -145 510 -53 82 -190 221 -283 287
-151 107 -390 205 -605 248 -141 29 -418 36 -546 15z m1083 -967 c-9 -9 -15
-9 -24 0 -9 9 -7 12 12 12 19 0 21 -3 12 -12z m458 -192 c0 -3 -4 -8 -10 -11
-5 -3 -10 -1 -10 4 0 6 5 11 10 11 6 0 10 -2 10 -4z m-4 -73 c-10 -10 -19 5
-10 18 6 11 8 11 12 0 2 -7 1 -15 -2 -18z m-1799 -55 c-3 -8 -6 -5 -6 6 -1 11
2 17 5 13 3 -3 4 -12 1 -19z m-10 -74 c-3 -3 -12 -4 -19 -1 -8 3 -5 6 6 6 11
1 17 -2 13 -5z m13 -54 c0 -5 -5 -10 -11 -10 -5 0 -7 5 -4 10 3 6 8 10 11 10
2 0 4 -4 4 -10z m-36 -67 c-17 -18 -27 -13 -18 10 3 9 12 13 20 10 11 -4 11
-7 -2 -20z m-4 -35 c0 -5 -4 -6 -10 -3 -5 3 -10 1 -10 -4 0 -6 -4 -11 -9 -11
-6 0 -9 8 -8 19 1 12 7 17 19 13 10 -2 18 -9 18 -14z m-31 -36 c6 -12 6 -23
-1 -33 -8 -11 -9 -11 -4 4 3 11 0 17 -9 17 -8 0 -15 7 -15 15 0 21 17 19 29
-3z m-29 -32 c0 -5 -4 -10 -10 -10 -5 0 -10 5 -10 10 0 6 5 10 10 10 6 0 10
-4 10 -10z m-13 -35 c-8 -9 -18 -10 -29 -4 -24 13 -23 14 11 15 23 1 26 -2 18
-11z m14 -28 c-10 -9 -11 -8 -5 6 3 10 9 15 12 12 3 -3 0 -11 -7 -18z m-21
-25 c0 -15 -2 -15 -10 -2 -13 20 -13 33 0 25 6 -3 10 -14 10 -23z m-74 -174
c4 -7 4 -10 -1 -6 -4 4 -15 2 -24 -5 -14 -11 -14 -10 -2 6 16 20 18 21 27 5z
m-1 -28 c-3 -5 -12 -10 -18 -10 -7 0 -6 4 3 10 19 12 23 12 15 0z m-17 -482
c-13 -9 -29 -18 -36 -18 -7 0 -11 -4 -7 -9 8 -14 -9 -21 -25 -10 -11 6 -12 9
-2 9 7 0 10 5 7 10 -4 6 -3 10 2 9 24 -4 43 2 37 13 -4 6 -3 8 2 5 6 -3 16 -2
24 4 10 6 11 9 3 9 -7 0 -13 5 -13 11 0 8 5 7 16 -2 14 -11 13 -15 -8 -31z
m-149 -171 c0 -9 -2 -8 -6 1 -2 6 -10 9 -15 6 -7 -4 -8 -2 -4 5 9 13 26 5 25
-12z"/>
<path d="M2648 3381 c24 -20 30 -37 10 -25 -8 4 -10 3 -5 -2 5 -5 13 -10 18
-10 5 -1 14 -2 19 -3 6 0 10 -5 10 -11 0 -5 -4 -9 -9 -7 -5 1 -9 -2 -10 -8 -1
-5 3 -10 8 -10 18 0 24 -15 12 -29 -8 -10 -9 -16 -1 -21 11 -7 14 13 11 59 -2
19 1 26 9 21 7 -4 7 1 -2 14 -7 12 -14 17 -16 11 -2 -5 -8 -10 -13 -10 -4 0
-6 7 -2 15 3 9 2 15 -3 14 -21 -4 -35 2 -29 11 3 6 -2 10 -12 10 -16 -1 -15
-3 5 -19z"/>
<path d="M2763 3373 c-57 -5 -55 -23 2 -23 33 0 45 4 45 15 0 8 -1 14 -2 13
-2 -1 -22 -3 -45 -5z"/>
<path d="M2800 3300 c0 -11 -4 -20 -9 -20 -5 0 -7 -9 -4 -20 3 -11 10 -20 15
-20 6 0 8 7 4 15 -3 8 -1 15 3 15 5 0 8 11 7 25 -1 30 -16 34 -16 5z"/>
<path d="M2845 3301 c-7 -12 12 -24 25 -16 6 3 10 1 10 -6 0 -7 2 -10 5 -7 3
3 3 13 -1 22 -7 17 -29 22 -39 7z"/>
<path d="M3080 3245 c-8 -9 -8 -15 -2 -15 12 0 26 19 19 26 -2 2 -10 -2 -17
-11z"/>
<path d="M2915 3241 c-3 -5 -1 -12 5 -16 5 -3 10 1 10 9 0 18 -6 21 -15 7z"/>
<path d="M2307 3227 c-3 -8 1 -14 9 -14 16 0 19 13 5 21 -5 3 -11 0 -14 -7z"/>
<path d="M2752 3220 c0 -14 2 -19 5 -12 2 6 2 18 0 25 -3 6 -5 1 -5 -13z"/>
<path d="M3115 3220 c-3 -5 1 -13 10 -16 22 -9 29 1 11 15 -10 8 -16 9 -21 1z"/>
<path d="M2945 3210 c-3 -5 -1 -10 4 -10 6 0 11 5 11 10 0 6 -2 10 -4 10 -3 0
-8 -4 -11 -10z"/>
<path d="M2295 3190 c-3 -5 -3 -10 2 -10 4 0 4 -4 -2 -8 -5 -4 -16 -18 -24
-32 -13 -24 -13 -24 4 -10 17 14 17 13 11 -10 -7 -24 -7 -24 11 3 10 15 21 27
25 27 5 0 8 7 8 16 0 12 -5 11 -20 -7 -10 -13 -19 -19 -20 -13 0 6 3 14 7 18
7 7 14 36 8 36 -2 0 -7 -4 -10 -10z"/>
<path d="M2336 3187 c3 -10 9 -15 12 -12 3 3 0 11 -7 18 -10 9 -11 8 -5 -6z"/>
<path d="M3090 3177 c0 -18 30 -30 54 -21 9 3 16 14 16 23 -1 14 -3 13 -15 -3
-14 -19 -15 -19 -35 -1 -17 16 -20 16 -20 2z"/>
<path d="M2340 3140 c0 -11 5 -20 10 -20 6 0 10 -7 10 -16 0 -8 5 -12 10 -9 8
5 8 11 1 19 -6 7 -8 16 -4 19 3 4 1 7 -6 7 -7 0 -9 5 -6 10 3 6 1 10 -4 10 -6
0 -11 -9 -11 -20z"/>
<path d="M3330 3116 c0 -2 7 -9 15 -16 12 -10 15 -10 15 4 0 9 -7 16 -15 16
-8 0 -15 -2 -15 -4z"/>
<path d="M3397 3114 c-4 -4 -7 -14 -7 -23 0 -11 3 -12 11 -4 6 6 10 16 7 23
-2 6 -7 8 -11 4z"/>
<path d="M2311 3094 c6 -7 16 -11 21 -8 11 7 3 17 -18 20 -12 2 -13 -1 -3 -12z"/>
<path d="M2245 3090 c-3 -6 1 -7 9 -4 18 7 21 14 7 14 -6 0 -13 -4 -16 -10z"/>
<path d="M2386 3067 c3 -10 9 -15 12 -12 3 3 0 11 -7 18 -10 9 -11 8 -5 -6z"/>
<path d="M3465 3030 c3 -5 12 -7 20 -3 21 7 19 13 -6 13 -11 0 -18 -4 -14 -10z"/>
<path d="M2219 3013 c-13 -16 -12 -17 4 -4 9 7 17 15 17 17 0 8 -8 3 -21 -13z"/>
<path d="M3540 3010 c0 -5 -6 -8 -12 -6 -7 1 -10 1 -5 -1 4 -3 4 -10 0 -16 -4
-7 1 -5 12 3 17 14 17 13 10 -9 -5 -16 -4 -21 4 -17 12 8 11 56 -1 56 -4 0 -8
-4 -8 -10z"/>
<path d="M2198 2963 c6 -2 9 -10 6 -15 -4 -7 -2 -8 5 -4 13 9 5 26 -12 25 -9
0 -8 -2 1 -6z"/>
<path d="M2466 2897 c3 -10 9 -15 12 -12 3 3 0 11 -7 18 -10 9 -11 8 -5 -6z"/>
<path d="M3590 2570 c0 -11 -4 -20 -9 -20 -5 0 -11 -8 -15 -17 -3 -10 -9 -24
-12 -30 -3 -7 -1 -13 6 -13 6 0 8 5 5 10 -7 11 8 14 18 4 9 -9 -4 -35 -14 -28
-5 3 -17 0 -26 -6 -17 -10 -16 -10 2 -8 11 2 26 -3 33 -12 11 -13 11 -13 6 3
-3 9 -2 17 3 17 4 0 9 27 10 60 1 33 0 60 -3 60 -2 0 -4 -9 -4 -20z"/>
<path d="M3560 2423 c0 -5 5 -15 10 -23 8 -12 10 -11 10 8 0 12 -4 22 -10 22
-5 0 -10 -3 -10 -7z"/>
<path d="M1697 2115 c-4 -8 -1 -17 5 -21 6 -4 8 -3 4 4 -3 6 2 15 11 21 16 9
16 10 2 11 -9 0 -19 -7 -22 -15z"/>
<path d="M1660 2039 c-7 -11 -10 -23 -7 -25 2 -2 9 7 15 21 14 30 7 33 -8 4z"/>
<path d="M2890 1390 c0 -5 5 -10 11 -10 5 0 7 5 4 10 -3 6 -8 10 -11 10 -2 0
-4 -4 -4 -10z"/>
<path d="M2580 1306 c0 -2 7 -6 15 -10 8 -3 15 -1 15 4 0 6 -7 10 -15 10 -8 0
-15 -2 -15 -4z"/>
<path d="M2548 1293 c7 -3 16 -2 19 1 4 3 -2 6 -13 5 -11 0 -14 -3 -6 -6z"/>
<path d="M2388 1273 c6 -2 18 -2 25 0 6 3 1 5 -13 5 -14 0 -19 -2 -12 -5z"/>
<path d="M2829 1263 c-13 -16 -12 -17 4 -4 16 13 21 21 13 21 -2 0 -10 -8 -17
-17z"/>
<path d="M2247 1263 c-9 -2 -15 -9 -12 -14 4 -5 14 -5 26 1 11 6 24 8 29 5 6
-3 10 -1 10 4 0 11 -20 13 -53 4z"/>
<path d="M2118 1243 c6 -2 18 -2 25 0 6 3 1 5 -13 5 -14 0 -19 -2 -12 -5z"/>
<path d="M2085 1230 c-3 -5 -1 -10 4 -10 6 0 11 5 11 10 0 6 -2 10 -4 10 -3 0
-8 -4 -11 -10z"/>
<path d="M1996 1214 c-20 -19 -20 -21 -1 -21 8 0 13 3 10 6 -3 3 5 11 17 18
17 9 19 12 6 13 -9 0 -24 -7 -32 -16z"/>
<path d="M2356 1203 c-6 -14 -5 -15 5 -6 7 7 10 15 7 18 -3 3 -9 -2 -12 -12z"/>
<path d="M1924 1199 c-9 -14 15 -29 34 -21 9 3 13 1 9 -5 -7 -11 49 -11 60 1
5 4 -3 7 -17 6 -14 -1 -29 -1 -35 0 -18 5 -30 8 -40 9 -5 1 -3 6 5 11 9 6 10
10 3 10 -6 0 -15 -5 -19 -11z"/>
<path d="M1870 1186 c0 -2 7 -7 16 -10 8 -3 12 -2 9 4 -6 10 -25 14 -25 6z"/>
<path d="M1735 1129 c-4 -6 -5 -12 -2 -15 2 -3 7 2 10 11 7 17 1 20 -8 4z"/>
<path d="M1695 1110 c-3 -6 1 -7 9 -4 18 7 21 14 7 14 -6 0 -13 -4 -16 -10z"/>
<path d="M2790 1018 c-3 -26 -1 -43 3 -39 5 5 7 26 5 47 l-3 39 -5 -47z"/>
<path d="M1807 1016 c-3 -8 0 -17 7 -19 10 -4 12 1 9 14 -6 23 -9 24 -16 5z"/>
<path d="M2715 960 c-3 -6 1 -7 9 -4 18 7 21 14 7 14 -6 0 -13 -4 -16 -10z"/>
<path d="M2090 942 c0 -10 23 -22 41 -22 5 0 9 5 9 11 0 5 -5 7 -10 4 -6 -4
-17 -1 -25 5 -9 7 -15 8 -15 2z"/>
<path d="M2518 923 c7 -3 16 -2 19 1 4 3 -2 6 -13 5 -11 0 -14 -3 -6 -6z"/>
</g>
</svg>
